<?xml version="1.0" encoding="utf-8"?>
<!-- Generator: Adobe Illustrator 24.0.2, SVG Export Plug-In . SVG Version: 6.00 Build 0)  -->
<svg version="1.1" id="Layer_1" xmlns="http://www.w3.org/2000/svg" xmlns:xlink="http://www.w3.org/1999/xlink" x="0px" y="0px"
	 viewBox="0 0 512 512" style="enable-background:new 0 0 512 512;" xml:space="preserve">
<style type="text/css">
	.st0{fill:#C1E8F7;}
	.st1{fill:none;}
	.st2{fill:#554C44;}
	.st3{fill:#F2AF81;}
	.st4{fill:#FFB886;}
	.st5{fill:#EAEAEA;}
	.st6{fill:#3B3B3B;}
	.st7{fill:#ECEEEE;}
	.st8{fill:#DBDBDB;}
</style>
<circle id="XMLID_8244_" class="st0" cx="256.0887" cy="255.7101" r="245.858"/>
<g id="XMLID_7551_">
	<path id="XMLID_7574_" class="st1" d="M321.11,205.4577c0.0779,0.6482,0.212,0.8105,0.427,0.3071
		c0.6402-1.4979,1.7377-3.8023,3.3745-5.6055C323.3504,201.6641,322.1245,203.5689,321.11,205.4577z"/>
	<polygon id="XMLID_7573_" class="st1" points="329.5514,197.5317 329.5518,197.5317 329.5514,197.5317 	"/>
	<path id="XMLID_7572_" class="st1" d="M190.5224,206.0397c-0.0662-0.0983-0.121-0.1751-0.1886-0.2749
		C190.4062,205.9326,190.4669,206.0094,190.5224,206.0397z"/>
	<path id="XMLID_7571_" class="st2" d="M300.7633,282.0972c-1.1443,0.971-2.235,1.896-3.2886,2.7848
		c0.1199,2.8477,0.3963,5.9948,0.9688,9.3189c0.3481-0.3338,0.6734-0.6713,0.872-1.0354
		c4.5829-8.4012,6.1875-15.5616,7.9793-10.2344c1.1414,3.3935,5.2687-4.2311,5.7016-9.4758c0.3934-4.7755,0.5721-7.2141,3.04-2.6707
		c2.2013,4.056,5.7769-20.9473,6.8928-35.0235c-0.5996,0.068-1.1988,0.0998-1.7926-0.0088
		C309.9257,233.7083,319.2285,266.4215,300.7633,282.0972z"/>
	<path id="XMLID_7570_" class="st2" d="M211.1082,282.0972c-18.4656-15.6757-9.1624-48.3889-20.3733-46.3448
		c-0.5941,0.1086-1.1937,0.0768-1.7926,0.0088c1.1158,14.0762,4.6922,39.0795,6.8927,35.0235
		c2.4675-4.5434,2.6466-2.1048,3.04,2.6707c0.4325,5.2446,4.5602,12.8693,5.702,9.4758c1.7637-5.2468,3.353,1.6189,7.7757,9.8505
		c0.4811-3.2151,0.6979-6.2482,0.7806-8.9687C212.4657,283.2471,211.8105,282.6935,211.1082,282.0972z"/>
	<path id="XMLID_7569_" class="st3" d="M255.1234,364.9762c41.6501-0.434,58.8397-20.1101,65.2235-36.2805
		c-14.5942-10.0647-19.9664-23.2591-21.9034-34.4948c-0.5725-3.3241-0.8489-6.4712-0.9688-9.3189
		c-9.486,8.0049-15.6029,12.6839-23.73,14.9046c-6.9421,3.6202-14.8571,4.611-18.2638,4.611
		c-3.5449,0-11.9023-1.0961-18.9804-5.0896c-7.6847-2.4938-13.821-7.4101-23.3673-15.4951
		c-0.0826,2.7205-0.2994,5.7535-0.7806,8.9687c-1.7322,11.5732-6.9651,25.5298-22.3165,36.0355
		C196.4562,344.9641,213.576,364.5441,255.1234,364.9762z"/>
	<path id="XMLID_7568_" class="st4" d="M273.5681,269.2334c-8.6663-3.2564-18.0872-2.6046-18.0872-2.6046
		s-9.4202-0.6519-18.0872,2.6046c-8.6667,3.2561-7.9135,16.9304,3.7588,19.8618c11.6723,2.9296,5.2848-3.5811,6.4153-6.5125
		c1.1301-2.9292,7.9132,0.4446,7.9132,0.4446s6.7827-3.3738,7.9132-0.4446c1.1301,2.9314-5.257,9.4421,6.4153,6.5125
		C281.4817,286.1638,282.2352,272.4895,273.5681,269.2334z"/>
	<path id="XMLID_7567_" class="st4" d="M211.1082,282.0972c0.7023,0.5963,1.3575,1.1498,2.0251,1.7158
		c9.5463,8.085,15.6826,13.0013,23.3673,15.4951c-6.4665-3.6469-11.8664-9.7075-11.507-19.6545
		c0.7539-20.8384,19.9368-24.7463,30.4874-24.7463c10.551,0,29.939,3.908,30.6922,24.7463
		c0.3751,10.3718-5.5491,16.5451-12.4284,20.1331c8.127-2.2207,14.244-6.8997,23.73-14.9046
		c1.0536-0.8888,2.1443-1.8138,3.2886-2.7848c18.4652-15.6757,9.1624-48.3889,20.3733-46.3448
		c0.5938,0.1086,1.193,0.0768,1.7926,0.0088c10.7162-1.2281,21.7648-29.3431,13.4228-35.7894
		c-2.1585-1.669-4.0494-2.3867-5.7027-2.4814c-0.3503,0.0874-0.7115,0.1232-1.0976,0.0413h-0.0004
		c-1.8375,0.4106-3.3482,1.3835-4.6399,2.6276c-1.6368,1.8032-2.7343,4.1076-3.3745,5.6055
		c-0.215,0.5034-0.3492,0.3411-0.427-0.3071c-1.9915,3.7098-3.2016,7.2854-4.6549,7.2854c-2.806,0-6.6855-32.1849-10.4267-31.1693
		c-2.5757,0.6998-1.6094,5.4556-8.157,3.5866c-6.548-1.8712-23.0989-18.8747-23.0989-14.769c0,4.1061,9.879,14.0334-7.0781,8.4206
		c-16.9575-5.6124-32.6189-26.1901-32.6189-15.5254c0,10.6643-7.1231-10.3649-7.4828,0
		c-0.468,13.4707-33.2072,29.0894-31.804,39.2952c1.39,10.113,1.8507,14.021-5.2662,3.4579
		c-0.0556-0.0303-0.1163-0.1071-0.1886-0.2749c-7.2949-10.8877-9.9565-5.4877-12.3494-7.33
		c-0.7839,0.3857-1.5973,0.8658-2.4649,1.537c-8.342,6.4464,2.7066,34.5614,13.4228,35.7894
		c0.5989,0.068,1.1985,0.0998,1.7926-0.0088C201.9458,233.7083,192.6426,266.4215,211.1082,282.0972z"/>
	<path id="XMLID_7566_" class="st5" d="M117.4102,350.8481c-4.4319,1.7922-7.8013,3.3489-9.5734,4.5057
		c15.7188,0.234,28.881,46.8863,32.3999,65.1519c1.8763,9.7401,2.813,30.9035,2.8605,53.5396
		c2.3358,1.2101,4.6662,2.4313,7.0452,3.5687c-4.5478-49.8407-19.6856-103.1997-32.6251-125.3126
		C117.328,351.8353,117.3174,351.3479,117.4102,350.8481z"/>
	<path id="XMLID_7565_" class="st5" d="M325.5901,329.5027l7.8773,1.7995C330.2779,330.4828,327.5731,329.858,325.5901,329.5027z"/>
	<path id="XMLID_7564_" class="st5" d="M175.8851,331.7182l7.7892-1.8869C181.5615,330.2741,178.9097,330.9201,175.8851,331.7182z"
		/>
	<path id="XMLID_7563_" class="st5" d="M403.1488,355.3699c-1.8138-1.1908-5.3375-2.8078-9.969-4.6699
		c0.1309,0.5517,0.1199,1.0869-0.0885,1.6013c-13.0034,22.2218-28.2284,76.0023-32.6931,126.0533
		c2.7029-1.2694,5.3653-2.6046,8.0137-3.9683c0.0384-22.7629,0.9751-44.0905,2.8608-53.8806
		C374.753,402.4434,387.6625,356.6145,403.1488,355.3699z"/>
	<path id="XMLID_7562_" class="st5" d="M344.3496,334.5656c0.0311-0.0822,0.1024-0.1462,0.1488-0.2212
		c-4.0008-1.1641-7.6752-2.1783-10.8822-3.0045c-6.3751,16.4826-25.6326,46.6183-77.0827,47.6142v0.0929
		c-0.4899,0-0.9261-0.0409-1.4101-0.0464c-0.4837,0.0055-0.921,0.0464-1.4101,0.0464v-0.0929
		c-51.453-0.9959-71.5127-30.7371-77.8867-47.2197c-2.9131,0.7692-6.174,1.6814-9.6582,2.6974
		c0.0245,0.0464,0.0713,0.0837,0.0907,0.1338c4.9547,13.1497,34.0601,86.3457,44.5347,162.7673
		c14.6885,2.7369,29.8133,4.2344,45.2952,4.2344c14.9185,0,29.5018-1.4032,43.6884-3.9489
		C310.2168,421.0933,339.3884,347.7314,344.3496,334.5656z"/>
	<path id="XMLID_7561_" class="st2" d="M190.3338,205.7648c0.0676,0.0998,0.1225,0.1766,0.1886,0.2749
		c7.1169,10.5631,6.6562,6.6551,5.2662-3.4579c-1.4032-10.2059,31.336-25.8245,31.804-39.2952
		c0.3598-10.3649,7.4828,10.6643,7.4828,0c0-10.6647,15.6614,9.913,32.6189,15.5254c16.9571,5.6128,7.0781-4.3145,7.0781-8.4206
		c0-4.1057,16.5509,12.8978,23.0989,14.769c6.5476,1.869,5.5813-2.8868,8.157-3.5866c3.7412-1.0157,7.6207,31.1693,10.4267,31.1693
		c1.4533,0,2.6634-3.5756,4.6549-7.2854c1.0146-1.8887,2.2404-3.7935,3.8015-5.2983c1.2917-1.2442,2.8024-2.217,4.6399-2.6276l0,0
		h0.0004c0.3861,0.0819,0.7473,0.0461,1.0976-0.0413c3.6692-0.9122,5.3268-10.6877,4.0458-20.0816
		c-1.4028-10.2896,5.8983,4.6772,4.5862,0.468c-1.3118-4.2096,0.559-43.9636-23.2938-60.8016c-7.9508-6.0804,8.4188,2.8064,6.0804,0
		c-1.2328-1.4781-5.8877-5.8413-12.3114-10.238c-1.6529,1.6533-4.9916,2.3475-10.1203,1.5655
		c-9.8523-1.5012-36.1188,5.2735-61.8406,16.0095c-25.7207,10.7345-48.3765,23.8393-58.6909,34.4506
		c-2.9183,3.0027-5.2022,3.2027-6.9406,1.6368c-1.2877,14.4692,0.1967,30.218,5.7908,37.9158
		c0.0095,0.0088,0.0201,0.0106,0.0296,0.0194C180.3773,200.277,183.0389,194.8771,190.3338,205.7648z"/>
	<path id="XMLID_7560_" class="st6" d="M166.2591,334.5656c-0.0194-0.0501-0.0662-0.0874-0.0907-0.1338
		c-2.9808-5.7769-47.1097,7.5282-48.7582,16.4164c-0.0929,0.4998-0.0823,0.9871,0.1071,1.4533
		c12.9395,22.1129,28.0774,75.4718,32.6251,125.3126c18.9917,9.0845,39.346,15.7488,60.6513,19.7189
		C200.3192,420.9112,171.2138,347.7153,166.2591,334.5656z"/>
	<path id="XMLID_7559_" class="st6" d="M393.1798,350.7001c-2.1004-8.8422-45.3017-21.8687-48.6814-16.3557
		c-0.0464,0.075-0.1177,0.1389-0.1488,0.2212c-4.9613,13.1658-34.1329,86.5277-44.5724,163.0529
		c21.283-3.8184,41.6168-10.3448,60.6209-19.2637c4.4648-50.051,19.6897-103.8315,32.6931-126.0533
		C393.2997,351.787,393.3107,351.2518,393.1798,350.7001z"/>
	<path id="XMLID_7558_" class="st6" d="M179.1046,158.8628c10.3145-10.6113,32.9703-23.7161,58.6909-34.4506
		c25.7218-10.736,51.9883-17.5107,61.8406-16.0095c5.1287,0.782,8.4674,0.0877,10.1203-1.5655
		c5.9111-5.9177-9.7759-24.116-42.4098-30.9397c-15.6358-3.2696-29.4126,1.3074-43.1158,5.5813
		c0.0505-1.1871-0.0874-2.4368-0.472-3.69c-1.4379-4.6907-5.2837-8.4107-9.7957-6.2295c-4.1131,1.9889-4.8424,5.5861-3.4049,10.2764
		c0.3649,1.1889,0.9049,2.262,1.5641,3.1848c-17.1772,4.9057-36.857,21.2632-42.525,39.0707
		c-2.9256,9.1935-2.8689,31.5119,2.5665,36.4084C173.9024,162.0655,176.1863,161.8655,179.1046,158.8628z"/>
	<path id="XMLID_7555_" class="st2" d="M286.1731,279.6535c-0.7531-20.8384-20.1412-24.7463-30.6922-24.7463
		c-10.5506,0-29.7336,3.908-30.4874,24.7463c-0.3594,9.947,5.0406,16.0076,11.507,19.6545
		c7.0781,3.9935,15.4355,5.0896,18.9804,5.0896c3.4067,0,11.3217-0.9908,18.2638-4.611
		C280.624,296.1986,286.5482,290.0254,286.1731,279.6535z M269.8094,289.0953c-11.6723,2.9296-5.2852-3.5811-6.4153-6.5125
		c-1.1305-2.9292-7.9132,0.4446-7.9132,0.4446s-6.7831-3.3738-7.9132-0.4446c-1.1304,2.9314,5.257,9.4421-6.4153,6.5125
		c-11.6723-2.9314-12.4254-16.6058-3.7588-19.8618c8.667-3.2564,18.0872-2.6046,18.0872-2.6046s9.4209-0.6519,18.0872,2.6046
		C282.2352,272.4895,281.4817,286.1638,269.8094,289.0953z"/>
	<path id="XMLID_7554_" class="st7" d="M253.7132,378.954v0.0929c0.4892,0,0.9264-0.0409,1.4101-0.0464
		c0.4841,0.0055,0.9202,0.0464,1.4101,0.0464v-0.0929c51.4501-0.9959,70.7076-31.1316,77.0827-47.6142l0.0018-0.0036l-0.1506-0.034
		l-7.8773-1.7995l-5.0925-1.1619c-0.0453,0.1159-0.1042,0.2373-0.1506,0.355c-6.3838,16.1703-23.5735,35.8465-65.2235,36.2805
		c-41.5473-0.4322-58.6672-20.0121-65.0872-36.1591c-0.0629-0.1569-0.1415-0.3195-0.2022-0.4764l-6.1597,1.4906l-7.7892,1.8869
		l-0.0592,0.0143l0.0007,0.0018C182.2005,348.2169,202.2602,377.9581,253.7132,378.954z"/>
	<path id="XMLID_7553_" class="st8" d="M107.8369,355.3539c-0.7319-0.0106-1.4679,0.0432-2.2101,0.2413
		c-11.937,3.1862-21.5996,35.8088-28.504,68.5937c18.9413,20.1134,41.222,37.0193,65.9745,49.8564
		c-0.0475-22.6361-0.9842-43.7995-2.8605-53.5396C136.7178,402.2401,123.5557,355.5878,107.8369,355.3539z"/>
	<path id="XMLID_7552_" class="st8" d="M405.8828,355.5952c-0.9192-0.2464-1.8302-0.2983-2.734-0.2252
		c-15.4863,1.2445-28.3958,47.0735-31.876,65.1358c-1.8858,9.7902-2.8224,31.1177-2.8608,53.8806
		c24.7818-12.7552,47.1023-29.584,66.0966-49.6247C427.5964,391.786,417.8896,358.7993,405.8828,355.5952z"/>
</g>
</svg>
