<svg xmlns="http://www.w3.org/2000/svg" id="Layer_1" viewBox="0 0 32 32"><path fill="#f15743" d="M19.5 14.458h-5a.5.5 0 0 1 0-1h5a.5.5 0 0 1 0 1zM19.5 16.458h-5a.5.5 0 0 1 0-1h5a.5.5 0 0 1 0 1zM19.5 18.458h-5a.5.5 0 0 1 0-1h5a.5.5 0 0 1 0 1zM19.5 20.458h-5a.5.5 0 0 1 0-1h5a.5.5 0 0 1 0 1zM19.5 22.458h-5a.5.5 0 0 1 0-1h5a.5.5 0 0 1 0 1zM12.45 14.46a.665.665 0 0 1-.19-.04.535.535 0 0 1-.269-.27.615.615 0 0 1-.04-.189c0-.141.06-.26.149-.36.13-.14.36-.18.54-.1.07.02.12.06.17.1.04.05.08.11.101.17.029.061.04.12.04.19 0 .06-.011.13-.03.189-.03.061-.07.11-.11.16a.444.444 0 0 1-.17.11c-.061.019-.121.04-.191.04zM12.45 16.46a.47.47 0 0 1-.351-.15.548.548 0 0 1-.109-.16.615.615 0 0 1-.04-.189c0-.141.06-.26.149-.36.181-.18.521-.18.71 0 .04.05.08.11.101.17.029.061.04.12.04.19 0 .06-.011.13-.03.189-.03.061-.07.11-.11.16a.444.444 0 0 1-.17.11c-.06.03-.12.04-.19.04zM12.45 18.46a.47.47 0 0 1-.351-.15.468.468 0 0 1-.149-.35c0-.141.06-.26.149-.36.19-.18.521-.18.71 0 .09.101.141.23.141.36s-.051.26-.141.35a.444.444 0 0 1-.17.11c-.059.019-.119.04-.189.04zM12.45 20.46a.47.47 0 0 1-.351-.15.468.468 0 0 1-.149-.35c0-.07.02-.13.04-.19a.507.507 0 0 1 .109-.17c.19-.18.521-.18.71 0 .09.101.141.23.141.36s-.051.26-.141.35a.444.444 0 0 1-.17.11c-.059.019-.119.04-.189.04zM12.45 22.46a.47.47 0 0 1-.351-.15.468.468 0 0 1-.149-.35c0-.07.02-.13.04-.19a.507.507 0 0 1 .109-.17c.19-.18.521-.18.71 0 .09.101.141.23.141.36s-.051.26-.141.35a.444.444 0 0 1-.17.11c-.059.019-.119.04-.189.04z"/><path fill="#2c4355" d="M22.5 28.458a.516.516 0 0 1-.21-.046L16 25.509l-6.29 2.903a.499.499 0 0 1-.71-.454V4.042a.5.5 0 0 1 .5-.5h13a.5.5 0 0 1 .5.5v23.916a.5.5 0 0 1-.5.5zm-6.5-4c.071 0 .143.016.21.046L22 27.177V4.542H10v22.635l5.79-2.673a.516.516 0 0 1 .21-.046z"/><path fill="#f15743" d="M17.625 11.458a.492.492 0 0 1-.232-.058L16 10.669l-1.393.731a.5.5 0 0 1-.725-.527l.267-1.549-1.126-1.098a.5.5 0 0 1 .276-.854l1.557-.226.696-1.411c.168-.34.729-.34.896 0l.696 1.411 1.557.226a.5.5 0 1 1 .276.854l-1.126 1.098.267 1.549a.5.5 0 0 1-.493.585zM16 9.604c.08 0 .16.02.232.058l.729.382-.14-.81a.501.501 0 0 1 .145-.443l.589-.573-.815-.118a.5.5 0 0 1-.376-.273L16 7.088l-.364.738a.504.504 0 0 1-.376.274l-.814.118.589.573a.504.504 0 0 1 .145.443l-.14.81.729-.382A.492.492 0 0 1 16 9.604z"/></svg>